#!OML:ASF E:\Steps\Project 1\Capture day 1\Session 2\Subject.ASF
:FULLY-SPECIFIED
:DEGREES
277
root -1.17402 17.9812 21.0114 -155.003 1.65959 178.367
lowerback -27.523 -3.21338 -6.33567
upperback -0.0753384 -1.71879 -0.167448
thorax 14.7945 -1.02396 2.67583
lowerneck -2.86813 -6.02269 0.528847
upperneck 21.7972 -7.02316 0.32743
head 7.11979 -2.7433 -0.395602
rclavicle -1.64991e-014 -3.4191e-014
rhumerus -37.7844 -14.2895 -81.5238
rradius 34.4963
rwrist -3.6193
rhand -9.00273 -57.6863
rfingers 7.12502
rthumb 16.9438 -86.9672
lclavicle -1.64991e-014 -3.4191e-014
lhumerus -28.4889 4.37726 81.2978
lradius 22.5404
lwrist -3.30517
lhand -23.4173 -13.2399
lfingers 7.12502
lthumb 3.0401 16.7182
rfemur -24.4938 7.07739 19.042
rtibia 8.36548
rfoot -17.7941 -2.29294
rtoes -37.7615
lfemur -23.7641 -6.31396 -23.2922
ltibia 8.09503
lfoot -7.34086 -1.52122
ltoes -37.7954
278
root -1.17744 17.9817 21.0112 -155.019 1.69313 178.464
lowerback -27.5066 -3.22518 -6.24432
upperback -0.0390823 -1.7819 -0.108513
thorax 14.8351 -1.05331 2.66537
lowerneck -2.8272 -6.09483 0.39554
upperneck 21.8087 -7.11589 0.362116
head 7.12317 -2.79618 -0.368184
rclavicle 7.25564e-015 -3.85642e-014
rhumerus -37.7599 -14.2815 -81.4749
rradius 34.5827
rwrist -3.51787
rhand -8.25612 -59.088
rfingers 7.12502
rthumb 17.6624 -88.3057
lclavicle 7.25564e-015 -3.85642e-014
lhumerus -28.5525 4.4727 81.2956
lradius 22.5547
lwrist -3.29539
lhand -23.7503 -12.8547
lfingers 7.12502
lthumb 2.71854 17.1077
rfemur -24.4905 7.10843 19.1385
rtibia 8.39671
rfoot -17.778 -2.25392
rtoes -37.9034
lfemur -23.7486 -6.20525 -23.2216
ltibia 8.0695
lfoot -7.41669 -1.51576
ltoes -38.525
279
root -1.18188 17.9808 21.0094 -155 1.77628 178.489
lowerback -27.5544 -3.24647 -6.18661
upperback -0.00689523 -1.82994 -0.0949917
thorax 14.8991 -1.07477 2.62822
lowerneck -2.72402 -6.0659 0.24206
upperneck 21.765 -7.07996 0.476614
head 7.10139 -2.78315 -0.300432
rclavicle -1.39149e-014 -2.98177e-014
rhumerus -37.5419 -14.2327 -81.4969
rradius 34.3431
rwrist -3.45132
rhand -8.50933 -59.4915
rfingers 7.12502
rthumb 17.4187 -88.7311
lclavicle -1.39149e-014 -2.98177e-014
lhumerus -28.5254 4.72644 81.1998
lradius 22.422
lwrist -3.38704
lhand -23.7638 -12.6808
lfingers 7.12502
lthumb 2.70545 17.2818
rfemur -24.5107 7.09273 19.1429
rtibia 8.38475
rfoot -17.7907 -2.1036
rtoes -37.7015
lfemur -23.7604 -6.15334 -23.2458
ltibia 8.09058
lfoot -7.43689 -1.4248
ltoes -39.1998
280
root -1.18447 17.9801 21.0093 -155.017 1.88987 178.481
lowerback -27.2925 -3.26812 -6.21797
upperback -0.142458 -1.86637 -0.0810628
thorax 14.6205 -1.08153 2.65522
lowerneck -2.58408 -6.04462 0.115919
upperneck 21.92 -7.01696 0.52738
head 7.13422 -2.74483 -0.255795
rclavicle -6.36111e-015 -1.82882e-014
rhumerus -37.7191 -14.1362 -81.4596
rradius 34.2506
rwrist -3.50315
rhand -8.86237 -59.5013
rfingers 7.12502
rthumb 17.0789 -88.7706
lclavicle -6.36111e-015 -1.82882e-014
lhumerus -28.7449 5.09803 81.0684
lradius 22.2412
lwrist -3.80702
lhand -23.6488 -12.7423
lfingers 7.12502
lthumb 2.81652 17.2188
rfemur -24.5227 7.14206 19.0876
rtibia 8.3934
rfoot -17.7876 -1.98565
rtoes -37.4385
lfemur -23.707 -6.20624 -23.2564
ltibia 8.02359
lfoot -7.35042 -1.3149
ltoes -38.5989
281
root -1.18635 17.9788 21.0077 -155.018 1.95772 178.508
lowerback -27.6681 -3.27468 -6.20155
upperback 0.133265 -1.86615 -0.0853001
thorax 15.1216 -1.10649 2.62701
lowerneck -2.69453 -6.08182 0.131727
upperneck 21.7828 -7.10607 0.554201
head 7.10965 -2.79872 -0.258916
rclavicle -1.98785e-015 1.23246e-014
rhumerus -37.4198 -14.2525 -81.5698
rradius 34.3567
rwrist -3.59571
rhand -8.83936 -59.5831
rfingers 7.12502
rthumb 17.1011 -88.8505
lclavicle -1.98785e-015 1.23246e-014
lhumerus -28.2985 5.3925 81.0101
lradius 22.0075
lwrist -4.14946
lhand -23.6893 -13.0266
lfingers 7.12502
lthumb 2.77741 16.9351
rfemur -24.5119 7.23095 19.0858
rtibia 8.36015
rfoot -17.75 -2.02179
rtoes -37.5303
lfemur -23.67 -6.22274 -23.2372
ltibia 7.92858
lfoot -7.31719 -1.25305
ltoes -38.1752
282
root -1.18892 17.9782 21.0065 -154.997 2.02331 178.512
lowerback -27.6095 -3.30543 -6.2367
upperback 0.10299 -1.90597 -0.047003
thorax 15.0644 -1.12611 2.67424
lowerneck -2.7357 -6.20666 0.0840155
upperneck 21.9083 -7.25873 0.501235
head 7.15839 -2.87524 -0.281313
rclavicle -1.32192e-014 3.18055e-015
rhumerus -37.6001 -14.1394 -81.5264
rradius 34.5509
rwrist -3.68869
rhand -8.46462 -59.4137
rfingers 7.12502
rthumb 17.4617 -88.6495
lclavicle -1.32192e-014 3.18055e-015
lhumerus -28.3631 5.47306 81.0173
lradius 21.9195
lwrist -4.22672
lhand -23.7524 -13.2911
lfingers 7.12502
lthumb 2.71648 16.6713
rfemur -24.5302 7.22157 19.0856
rtibia 8.34262
rfoot -17.7311 -2.02756
rtoes -37.8692
lfemur -23.6856 -6.32086 -23.2269
ltibia 7.94583
lfoot -7.36843 -1.17693
ltoes -37.1751
283
root -1.19148 17.9826 21.0101 -155.004 2.05642 178.579
lowerback -27.5258 -3.3012 -6.1783
upperback 0.107256 -1.93193 -0.0355344
thorax 15.0305 -1.13527 2.64672
lowerneck -2.63787 -6.27222 0.0081378
upperneck 21.8315 -7.37182 0.641282
head 7.12552 -2.92785 -0.228122
rclavicle 1.6201e-014 -2.78299e-015
rhumerus -37.6304 -14.15 -81.5228
rradius 34.335
rwrist -4.05279
rhand -9.25234 -57.4977
rfingers 7.12502
rthumb 16.7035 -86.7991
lclavicle 1.6201e-014 -2.78299e-015
lhumerus -28.4018 5.424 80.9877
lradius 21.9116
lwrist -4.20019
lhand -23.5635 -13.353
lfingers 7.12502
lthumb 2.8989 16.6071
rfemur -24.5751 7.20789 19.1599
rtibia 8.40788
rfoot -17.7913 -1.98335
rtoes -37.8114
lfemur -23.7091 -6.4872 -23.083
ltibia 8.00079
lfoot -7.41731 -1.0477
ltoes -36.3298
284
root -1.19393 17.9855 21.0135 -154.97 2.08751 178.671
lowerback -27.4555 -3.31422 -6.10948
upperback 0.0830133 -1.98478 0.00310026
thorax 14.9732 -1.15424 2.63296
lowerneck -2.49459 -6.36534 0.0675354
upperneck 21.6879 -7.50327 0.589083
head 7.04953 -2.99878 -0.257435
rclavicle 5.76476e-015 -5.56597e-015
rhumerus -37.6373 -14.1943 -81.4912
rradius 34.2528
rwrist -3.963
rhand -9.34653 -56.9482
rfingers 7.12502
rthumb 16.6128 -86.2572
lclavicle 5.76476e-015 -5.56597e-015
lhumerus -28.4562 5.40052 80.9585
lradius 21.9279
lwrist -4.0925
lhand -23.1843 -13.3135
lfingers 7.12502
lthumb 3.26511 16.6413
rfemur -24.6738 7.25518 19.2407
rtibia 8.49646
rfoot -17.8333 -1.95073
rtoes -37.471
lfemur -23.7913 -6.52986 -22.9484
ltibia 8.03794
lfoot -7.46795 -0.873378
ltoes -37.4262
285
root -1.1971 17.982 21.0113 -154.897 2.17676 178.642
lowerback -27.5469 -3.37183 -6.15648
upperback 0.104379 -2.0423 0.029059
thorax 15.0501 -1.18614 2.66154
lowerneck -2.55315 -6.47856 0.207527
upperneck 21.7538 -7.62462 0.314065
head 7.06412 -3.06902 -0.379123
rclavicle 1.16289e-014 1.27222e-014
rhumerus -37.578 -14.1204 -81.5036
rradius 34.3254
rwrist -3.85108
rhand -9.17302 -57.0104
rfingers 7.12502
rthumb 16.7799 -86.3053
lclavicle 1.16289e-014 1.27222e-014
lhumerus -28.4896 5.35169 80.9971
lradius 22.0093
lwrist -3.84065
lhand -22.9434 -13.2502
lfingers 7.12502
lthumb 3.4978 16.7008
rfemur -24.7704 7.22252 19.1752
rtibia 8.50089
rfoot -17.7969 -1.7954
rtoes -37.006
lfemur -23.8803 -6.59416 -22.9947
ltibia 8.06653
lfoot -7.49557 -0.750284
ltoes -37.9074
